<svg width="103" height="16" viewBox="0 0 103 16" fill="none" xmlns="http://www.w3.org/2000/svg">
<g clip-path="url(#clip0_39495_345946)">
<path d="M16.3255 8.00056L25.8244 12.9983L26.9783 13.6092L25.7968 15.9974L24.6291 15.3865L13.4923 9.50515L2.35551 15.3865L1.2016 15.9974L0.00622559 13.6092L1.16013 12.9983L10.654 8.00056L1.16013 2.97267L0.00622559 2.37561L1.19532 0.00244141L2.34922 0.613328L13.486 6.4947L24.6228 0.613328L25.7905 0.00244141L26.9721 2.37938L25.8244 2.97518L16.3255 8.00056Z" fill="#1D1929"/>
<path d="M31.6192 9.42983V11.5076C31.6202 11.9 31.7765 12.2761 32.054 12.5535C32.3314 12.831 32.7075 12.9873 33.0999 12.9883H53.7846V15.589H33.0999C32.5629 15.5898 32.0309 15.4847 31.5346 15.2795C31.0383 15.0744 30.5874 14.7733 30.2076 14.3936C29.8279 14.0138 29.5268 13.5629 29.3217 13.0666C29.1166 12.5703 29.0114 12.0384 29.0122 11.5013V4.55026C29.0165 3.46746 29.4486 2.43025 30.2142 1.66459C30.9799 0.898935 32.0171 0.466888 33.0999 0.462585H53.7846V3.0708H33.0999C32.7074 3.07147 32.3311 3.22768 32.0536 3.50523C31.7761 3.78277 31.6198 4.15901 31.6192 4.55152V6.81407H53.7846V9.42983H31.6192Z" fill="#1D1929"/>
<path d="M58.4303 0.462585V11.5051C58.4313 11.8975 58.5876 12.2735 58.8651 12.551C59.1426 12.8285 59.5186 12.9848 59.911 12.9858H75.8972V15.589H59.911C59.374 15.5898 58.8421 15.4847 58.3458 15.2795C57.8495 15.0744 57.3985 14.7733 57.0188 14.3936C56.639 14.0138 56.338 13.5629 56.1328 13.0666C55.9277 12.5703 55.8225 12.0384 55.8234 11.5013V0.462585H58.4303Z" fill="#1D1929"/>
<path d="M80.5418 10.9884V15.589H77.9336V4.56406C77.9328 4.02703 78.0379 3.49511 78.2431 2.99879C78.4482 2.50248 78.7493 2.05153 79.129 1.67179C79.5087 1.29205 79.9597 0.990987 80.456 0.785855C80.9523 0.580724 81.4842 0.475557 82.0213 0.476384H98.0074C98.5445 0.475557 99.0764 0.580724 99.5727 0.785855C100.069 0.990987 100.52 1.29205 100.9 1.67179C101.279 2.05153 101.581 2.50248 101.786 2.99879C101.991 3.49511 102.096 4.02703 102.095 4.56406V15.589H99.4831V10.9884H80.5418ZM99.4831 8.38023V4.56406C99.4821 4.17166 99.3258 3.79561 99.0483 3.51814C98.7709 3.24066 98.3948 3.08434 98.0024 3.08335H82.0225C81.6301 3.08434 81.2541 3.24066 80.9766 3.51814C80.6991 3.79561 80.5428 4.17166 80.5418 4.56406V8.38023H99.4831Z" fill="#1D1929"/>
</g>
<defs>
<clipPath id="clip0_39495_345946">
<rect width="102.098" height="16" fill="white"/>
</clipPath>
</defs>
</svg>
