<svg width="22" height="22" viewBox="0 0 22 22" fill="none" xmlns="http://www.w3.org/2000/svg">
<path d="M15.6667 5.66669H17.0001M7.00008 1.66669H15.0001C17.9456 1.66669 20.3334 4.0545 20.3334 7.00002V15C20.3334 17.9455 17.9456 20.3334 15.0001 20.3334H7.00008C4.05456 20.3334 1.66675 17.9455 1.66675 15V7.00002C1.66675 4.0545 4.05456 1.66669 7.00008 1.66669ZM11.0001 15C8.79094 15 7.00008 13.2092 7.00008 11C7.00008 8.79088 8.79094 7.00002 11.0001 7.00002C13.2092 7.00002 15.0001 8.79088 15.0001 11C15.0001 13.2092 13.2092 15 11.0001 15Z" stroke="#1D1929" stroke-width="1.5"/>
</svg>
