<svg width="22" height="18" viewBox="0 0 22 18" fill="none" xmlns="http://www.w3.org/2000/svg">
<path d="M20.3046 1L21.053 0.950384C21.033 0.649527 20.8348 0.389867 20.5499 0.29125C20.265 0.192633 19.9487 0.274236 19.747 0.498395L20.3046 1ZM19.7233 4.94521C19.7233 4.53099 19.3875 4.19521 18.9733 4.19521C18.5591 4.19521 18.2233 4.53099 18.2233 4.94521H19.7233ZM10.9857 5.0548H10.2357H10.9857ZM10.9857 6.33333L11.7357 6.33333V6.33333L10.9857 6.33333ZM1.66675 15.6667V14.9167C1.33635 14.9167 1.04486 15.1329 0.949007 15.4491C0.853149 15.7653 0.975498 16.1069 1.25028 16.2904L1.66675 15.6667ZM2.99802 1L3.7004 0.737014C3.59575 0.45751 3.33534 0.266656 3.03729 0.251029C2.73925 0.235402 2.4603 0.397977 2.327 0.665004L2.99802 1ZM8.32313 13L8.85387 13.5299C9.03741 13.3461 9.11276 13.0804 9.05304 12.8276C8.99331 12.5748 8.80703 12.3709 8.56063 12.2886L8.32313 13ZM17.9548 2.29784L17.3985 2.80085L17.6687 3.09972L18.0671 3.03938L17.9548 2.29784ZM19.5562 1.04962C19.6247 2.0825 19.5604 2.69879 19.3979 3.15688C19.2409 3.59929 18.9666 3.96772 18.4544 4.45848L19.4922 5.54152C20.0802 4.97813 20.5424 4.41714 20.8116 3.65837C21.0752 2.91528 21.1264 2.05865 21.053 0.950384L19.5562 1.04962ZM19.7233 5.91666V4.94521H18.2233V5.91666H19.7233ZM10.2357 5.0548L10.2357 6.33333L11.7357 6.33333L11.7357 5.05479L10.2357 5.0548ZM10.2357 6.33333L10.2357 7L11.7357 7L11.7357 6.33333L10.2357 6.33333ZM15.0342 0.25C12.383 0.25 10.2357 2.40227 10.2357 5.0548H11.7357C11.7357 3.22851 13.2136 1.75 15.0342 1.75V0.25ZM18.2233 5.91666C18.2233 11.6247 13.6035 16.25 7.90709 16.25V17.75C14.4341 17.75 19.7233 12.4509 19.7233 5.91666H18.2233ZM2.29564 1.26299C3.0275 3.21762 5.77235 7.08333 10.9857 7.08333V5.58333C6.61382 5.58333 4.29982 2.33794 3.7004 0.737014L2.29564 1.26299ZM2.327 0.665004C0.923317 3.4767 0.702205 6.21458 1.72893 8.55166C2.75305 10.8828 4.95309 12.6656 8.08563 13.7114L8.56063 12.2886C5.70243 11.3344 3.90863 9.78386 3.10225 7.94834C2.29847 6.11875 2.41018 3.85663 3.66905 1.335L2.327 0.665004ZM7.79238 12.4701C7.00016 13.2635 4.60651 14.9167 1.66675 14.9167V16.4167C5.11711 16.4167 7.87109 14.5142 8.85387 13.5299L7.79238 12.4701ZM18.5111 1.79483C17.6543 0.847246 16.4135 0.25 15.0342 0.25V1.75C15.9715 1.75 16.8138 2.1542 17.3985 2.80085L18.5111 1.79483ZM18.0671 3.03938C19.101 2.88281 20.1076 2.34041 20.8622 1.50161L19.747 0.498395C19.2156 1.08911 18.5196 1.45375 17.8425 1.5563L18.0671 3.03938ZM1.25028 16.2904C3.46169 17.767 5.78066 17.75 7.90709 17.75V16.25C5.7311 16.25 3.86563 16.233 2.08322 15.0429L1.25028 16.2904Z" fill="#1D1929"/>
</svg>
